<?xml version="1.0" standalone="no"?>
<!DOCTYPE svg PUBLIC "-//W3C//DTD SVG 20010904//EN"
 "http://www.w3.org/TR/2001/REC-SVG-20010904/DTD/svg10.dtd">
<svg version="1.0" xmlns="http://www.w3.org/2000/svg"
 width="1024.000000pt" height="1024.000000pt" viewBox="0 0 1024.000000 1024.000000"
 preserveAspectRatio="xMidYMid meet">

<g transform="translate(0.000000,1024.000000) scale(0.100000,-0.100000)"
fill="#000000" stroke="none">
<path d="M6882 4815 c-73 -16 -141 -47 -167 -74 -16 -19 -15 -19 57 0 180 47
343 0 462 -133 65 -71 90 -142 90 -253 0 -74 -5 -101 -26 -153 -89 -217 -296
-412 -645 -611 -51 -29 -95 -56 -98 -61 -7 -11 102 19 220 61 297 104 540 253
673 411 110 131 166 297 143 425 -34 186 -182 334 -386 388 -73 19 -236 19
-323 0z"/>
<path d="M4115 4758 c-105 -12 -298 -51 -409 -83 -191 -55 -433 -158 -493
-209 -127 -108 101 -198 637 -253 252 -26 1113 -26 1410 0 349 31 609 68 860
123 89 20 132 36 190 69 41 24 102 57 135 74 l60 32 -40 -6 c-22 -2 -130 -18
-240 -35 -1053 -156 -2368 -171 -2548 -29 -15 11 -27 29 -27 40 0 62 185 151
501 243 143 42 150 45 99 44 -30 0 -91 -5 -135 -10z"/>
<path d="M3948 3956 c-143 -62 -219 -121 -234 -180 -18 -73 88 -153 276 -209
208 -62 404 -86 760 -94 493 -10 883 32 1344 144 l189 45 -73 39 c-40 21 -99
58 -131 83 l-58 45 -76 -14 c-561 -108 -1074 -133 -1630 -80 -196 19 -282 42
-319 86 -14 17 -26 37 -26 44 0 26 21 70 48 98 33 35 24 34 -70 -7z"/>
<path d="M4140 3236 c-119 -44 -214 -114 -225 -167 -29 -130 241 -263 660
-326 150 -22 631 -25 795 -5 237 29 515 97 717 175 l83 32 -67 29 c-38 16
-119 55 -181 88 l-113 59 -178 -30 c-372 -63 -677 -76 -1031 -46 -347 30 -468
70 -444 148 3 12 13 30 22 40 18 20 10 20 -38 3z"/>
<path d="M3330 2753 c-329 -64 -671 -235 -692 -346 -13 -70 61 -128 213 -166
173 -44 745 -116 1169 -147 292 -21 1002 -30 1283 -15 814 43 1476 165 1809
332 183 92 229 170 148 252 -45 44 -56 44 -40 2 75 -196 -461 -332 -1595 -407
-260 -17 -1296 -17 -1515 0 -459 36 -763 87 -951 159 -122 47 -137 98 -49 162
80 58 294 132 440 152 41 6 86 13 100 16 23 5 24 6 5 13 -33 14 -244 9 -325
-7z"/>
<path d="M7543 2306 c-227 -179 -847 -340 -1608 -416 -309 -31 -481 -40 -865
-47 -496 -8 -951 14 -1360 67 -80 10 -146 17 -148 15 -1 -1 41 -17 95 -34 163
-53 402 -91 773 -123 199 -18 1257 -18 1475 0 971 77 1531 250 1665 512 12 23
20 46 18 51 -2 4 -22 -7 -45 -25z"/>
</g>
</svg>
