<?xml version="1.0" standalone="no"?>
<!DOCTYPE svg PUBLIC "-//W3C//DTD SVG 20010904//EN"
 "http://www.w3.org/TR/2001/REC-SVG-20010904/DTD/svg10.dtd">
<svg version="1.0" xmlns="http://www.w3.org/2000/svg"
 width="1024.000000pt" height="1024.000000pt" viewBox="0 0 1024.000000 1024.000000"
 preserveAspectRatio="xMidYMid meet">

<g transform="translate(0.000000,1024.000000) scale(0.100000,-0.100000)"
fill="#000000" stroke="none">
<path d="M4780 8169 c-47 -4 -134 -15 -195 -24 l-110 -17 -287 -339 -288 -338
0 -205 0 -206 610 0 610 0 0 -80 0 -80 -853 0 -854 0 -400 -471 -401 -471 -9
-76 c-12 -111 -9 -372 6 -477 18 -135 68 -374 97 -461 72 -223 199 -387 356
-462 94 -46 151 -54 420 -59 l257 -6 3 339 c5 383 7 395 82 549 79 159 201
281 361 359 148 72 110 69 925 76 813 6 771 3 905 73 89 47 203 165 248 257
68 140 67 121 67 865 0 566 -2 680 -15 729 -55 212 -231 382 -475 460 -79 25
-230 49 -415 66 -126 11 -519 11 -645 -1z m-255 -378 c119 -54 169 -200 109
-320 -85 -169 -330 -168 -410 2 -56 122 -12 255 106 318 47 24 142 25 195 0z"/>
</g>
</svg>
